<?xml version="1.0" standalone="no"?>
<!DOCTYPE svg PUBLIC "-//W3C//DTD SVG 20010904//EN"
 "http://www.w3.org/TR/2001/REC-SVG-20010904/DTD/svg10.dtd">
<svg version="1.0" xmlns="http://www.w3.org/2000/svg"
 width="16.000000pt" height="16.000000pt" viewBox="0 0 16.000000 16.000000"
 preserveAspectRatio="xMidYMid meet">
<metadata>
Created by potrace 1.11, written by Peter Selinger 2001-2013
</metadata>
<g transform="translate(0.000000,16.000000) scale(0.001923,-0.001923)"
fill="#000000" stroke="none">
<path d="M1949 8316 c-2 -2 -22 -6 -44 -10 -55 -8 -93 -20 -144 -45 -96 -49
-148 -123 -188 -270 -4 -14 -9 -1818 -10 -4008 l-3 -3982 37 21 c21 12 40 25
43 28 3 4 12 10 20 13 8 4 29 16 45 27 17 11 37 23 45 27 8 3 17 10 20 13 3 4
23 17 45 29 22 12 83 49 135 82 85 53 170 105 218 134 10 6 66 40 124 78 59
37 112 67 118 67 5 0 10 3 10 8 0 4 23 21 51 37 69 40 54 31 464 285 198 123
398 246 445 274 47 28 87 53 90 56 3 3 38 26 79 50 40 25 88 54 106 65 29 18
81 49 214 133 20 12 52 31 71 42 41 24 67 40 153 96 42 27 68 38 77 32 8 -4
87 -52 175 -106 88 -54 171 -105 185 -113 13 -8 30 -20 38 -26 7 -7 19 -13 27
-13 7 0 15 -4 17 -8 2 -4 25 -21 52 -37 26 -17 56 -35 65 -40 9 -6 39 -23 66
-40 28 -16 52 -32 55 -36 4 -5 45 -29 111 -64 11 -5 19 -13 19 -17 0 -5 5 -8
11 -8 6 0 30 -13 54 -30 24 -16 46 -30 50 -30 3 0 11 -5 18 -10 22 -19 367
-230 377 -230 4 0 10 -4 12 -8 4 -10 105 -72 117 -72 5 0 11 -4 13 -8 3 -7 67
-48 181 -116 17 -10 42 -27 56 -37 13 -10 29 -19 37 -19 7 0 14 -3 16 -7 2 -5
44 -33 93 -63 50 -30 92 -58 93 -62 2 -4 7 -8 12 -8 5 0 44 -22 87 -48 43 -27
89 -55 103 -63 14 -8 27 -16 30 -19 6 -6 37 -25 75 -46 17 -9 60 -36 97 -60
37 -24 72 -44 77 -44 6 0 11 -4 11 -10 0 -5 6 -10 14 -10 8 0 16 -3 18 -7 4
-11 107 -73 119 -73 12 0 7 7930 -5 7980 -4 19 -12 43 -17 53 -5 9 -7 17 -4
17 3 0 -6 23 -20 50 -54 106 -140 167 -283 198 -29 6 -4466 14 -4473 8z m2281
-966 c6 -11 9 -20 6 -20 -3 0 2 -17 10 -37 9 -20 17 -44 19 -52 2 -9 14 -47
26 -86 13 -38 23 -72 24 -75 1 -3 4 -12 8 -20 3 -8 27 -82 53 -165 26 -82 51
-156 57 -162 5 -7 7 -13 4 -13 -4 0 1 -19 9 -42 9 -24 17 -50 19 -58 2 -8 4
-15 5 -15 1 0 3 -7 5 -15 2 -8 17 -58 35 -110 17 -52 33 -102 36 -110 2 -8 12
-40 22 -70 l19 -55 124 -2 c68 -1 126 -2 129 -3 3 -1 10 -1 15 0 19 5 157 2
162 -4 3 -3 13 -1 23 4 10 5 20 6 24 3 3 -3 131 -7 283 -9 485 -4 497 -4 522
-24 21 -15 22 -20 11 -41 -20 -36 -55 -68 -155 -139 -49 -35 -97 -70 -105 -77
-8 -8 -58 -44 -110 -81 -52 -36 -102 -72 -110 -79 -17 -14 -194 -144 -285
-209 -104 -74 -150 -109 -163 -121 -7 -7 -17 -13 -21 -13 -5 0 -20 -11 -35
-25 l-27 -25 77 -233 c42 -127 82 -248 89 -267 56 -149 215 -655 215 -684 0
-26 -6 -38 -22 -47 -13 -7 -24 -12 -26 -11 -1 1 -17 9 -35 18 -17 9 -94 61
-169 115 -75 55 -141 99 -145 99 -5 0 -15 9 -23 20 -8 11 -20 20 -27 20 -7 0
-13 3 -13 8 0 4 -8 12 -19 17 -28 15 -136 92 -154 110 -9 8 -18 15 -21 15 -4
0 -57 37 -120 83 -63 45 -122 88 -133 95 -10 7 -56 39 -102 72 l-83 59 -37
-27 c-20 -15 -37 -30 -39 -34 -2 -5 -10 -8 -18 -8 -8 0 -14 -4 -14 -9 0 -5 -8
-12 -18 -15 -10 -4 -27 -14 -38 -24 -16 -15 -67 -52 -197 -142 -12 -8 -27 -19
-34 -25 -13 -11 -256 -185 -281 -200 -20 -13 -17 -10 -127 -92 -6 -5 -33 -24
-60 -42 -28 -19 -52 -37 -55 -40 -9 -11 -44 -31 -87 -52 -36 -16 -46 -18 -63
-7 -31 19 -24 69 33 238 26 80 50 152 52 160 2 8 4 16 5 18 2 1 3 5 5 10 1 4
4 14 8 22 7 19 141 422 143 433 1 4 3 9 4 12 1 3 3 8 5 13 1 4 4 14 8 22 34
88 97 304 91 310 -5 4 -85 63 -179 131 -93 67 -176 129 -183 136 -7 7 -16 13
-20 13 -4 0 -19 10 -34 23 -15 12 -42 32 -60 45 -18 13 -93 68 -167 123 -74
54 -137 99 -140 99 -4 0 -17 10 -31 23 -14 12 -55 44 -92 70 -117 83 -138 140
-55 152 23 3 214 8 425 10 211 2 386 5 389 8 2 3 18 1 34 -3 16 -5 31 -5 33
-2 2 4 85 7 184 7 l179 -1 29 86 c15 47 29 88 30 93 1 4 3 9 4 12 1 3 3 8 4
13 1 4 29 88 61 187 32 99 59 182 60 185 1 8 115 359 142 439 14 41 27 81 28
90 2 9 4 17 4 17 1 1 30 2 66 3 55 1 66 -2 75 -19z"/>
</g>
</svg>
